<mxfile host="app.diagrams.net" agent="Mozilla/5.0 (Windows NT 10.0; Win64; x64) AppleWebKit/537.36 (KHTML, like Gecko) Chrome/135.0.0.0 Safari/537.36" version="26.2.14">
  <diagram name="Page-1" id="FjQjWQZ8GJuI0dCMnAay">
    <mxGraphModel dx="1188" dy="626" grid="1" gridSize="10" guides="1" tooltips="1" connect="1" arrows="1" fold="1" page="1" pageScale="1" pageWidth="850" pageHeight="1100" math="0" shadow="0">
      <root>
        <mxCell id="0" />
        <mxCell id="1" parent="0" />
        <mxCell id="INsz8xT2XLBDGT-k4eeq-2" value="&lt;h1&gt;&lt;br&gt;&lt;/h1&gt;" style="rounded=0;whiteSpace=wrap;html=1;fillColor=#647687;strokeColor=#314354;fontColor=#ffffff;align=center;" vertex="1" parent="1">
          <mxGeometry x="40" y="90" width="340" height="520" as="geometry" />
        </mxCell>
        <mxCell id="INsz8xT2XLBDGT-k4eeq-3" value="&lt;h2&gt;PC Back&lt;/h2&gt;" style="rounded=1;whiteSpace=wrap;html=1;fillColor=#647687;fontColor=#ffffff;strokeColor=#314354;" vertex="1" parent="1">
          <mxGeometry x="150" y="40" width="120" height="30" as="geometry" />
        </mxCell>
        <mxCell id="INsz8xT2XLBDGT-k4eeq-4" value="usb c" style="rounded=1;whiteSpace=wrap;html=1;arcSize=50;rotation=-90;" vertex="1" parent="1">
          <mxGeometry x="52.5" y="141.25" width="40" height="12.5" as="geometry" />
        </mxCell>
        <mxCell id="INsz8xT2XLBDGT-k4eeq-5" value="&lt;font style=&quot;font-size: 20px;&quot;&gt;1&lt;/font&gt;" style="rounded=1;whiteSpace=wrap;html=1;" vertex="1" parent="1">
          <mxGeometry x="100" y="117.5" width="20" height="60" as="geometry" />
        </mxCell>
        <mxCell id="INsz8xT2XLBDGT-k4eeq-6" value="&lt;font style=&quot;font-size: 20px;&quot;&gt;2&lt;/font&gt;" style="rounded=1;whiteSpace=wrap;html=1;" vertex="1" parent="1">
          <mxGeometry x="62.5" y="190" width="20" height="60" as="geometry" />
        </mxCell>
        <mxCell id="INsz8xT2XLBDGT-k4eeq-7" value="&lt;font style=&quot;font-size: 20px;&quot;&gt;3&lt;/font&gt;" style="rounded=1;whiteSpace=wrap;html=1;" vertex="1" parent="1">
          <mxGeometry x="100" y="190" width="20" height="60" as="geometry" />
        </mxCell>
        <mxCell id="INsz8xT2XLBDGT-k4eeq-8" value="&lt;font style=&quot;font-size: 20px;&quot;&gt;4&lt;/font&gt;" style="rounded=1;whiteSpace=wrap;html=1;" vertex="1" parent="1">
          <mxGeometry x="137" y="190" width="20" height="60" as="geometry" />
        </mxCell>
        <mxCell id="INsz8xT2XLBDGT-k4eeq-9" value="&lt;font style=&quot;font-size: 20px;&quot;&gt;5&lt;/font&gt;" style="rounded=1;whiteSpace=wrap;html=1;" vertex="1" parent="1">
          <mxGeometry x="172" y="190" width="20" height="60" as="geometry" />
        </mxCell>
        <mxCell id="INsz8xT2XLBDGT-k4eeq-10" value="&lt;font style=&quot;font-size: 20px;&quot;&gt;6&lt;/font&gt;" style="rounded=1;whiteSpace=wrap;html=1;" vertex="1" parent="1">
          <mxGeometry x="62.5" y="270" width="20" height="60" as="geometry" />
        </mxCell>
        <mxCell id="INsz8xT2XLBDGT-k4eeq-11" value="&lt;font style=&quot;font-size: 20px;&quot;&gt;7&lt;/font&gt;" style="rounded=1;whiteSpace=wrap;html=1;" vertex="1" parent="1">
          <mxGeometry x="100" y="270" width="20" height="60" as="geometry" />
        </mxCell>
        <mxCell id="INsz8xT2XLBDGT-k4eeq-14" value="" style="rounded=1;whiteSpace=wrap;html=1;arcSize=50;rotation=-90;" vertex="1" parent="1">
          <mxGeometry x="163.5" y="293.75" width="37" height="12.5" as="geometry" />
        </mxCell>
        <mxCell id="INsz8xT2XLBDGT-k4eeq-15" value="ETH" style="rounded=0;whiteSpace=wrap;html=1;" vertex="1" parent="1">
          <mxGeometry x="140" y="275" width="40" height="50" as="geometry" />
        </mxCell>
        <mxCell id="INsz8xT2XLBDGT-k4eeq-17" value="" style="ellipse;whiteSpace=wrap;html=1;aspect=fixed;" vertex="1" parent="1">
          <mxGeometry x="80" y="340" width="30" height="30" as="geometry" />
        </mxCell>
        <mxCell id="INsz8xT2XLBDGT-k4eeq-19" value="" style="ellipse;whiteSpace=wrap;html=1;aspect=fixed;" vertex="1" parent="1">
          <mxGeometry x="142" y="340" width="30" height="30" as="geometry" />
        </mxCell>
        <mxCell id="INsz8xT2XLBDGT-k4eeq-20" value="wifi/bluetooth" style="text;align=center;fillColor=none;html=1;verticalAlign=middle;whiteSpace=wrap;rounded=0;" vertex="1" parent="1">
          <mxGeometry x="97" y="340" width="60" height="30" as="geometry" />
        </mxCell>
        <mxCell id="INsz8xT2XLBDGT-k4eeq-21" value="LINE IN" style="ellipse;html=1;aspect=fixed;fillColor=light-dark(#1BA1E2,#0000FF);strokeColor=#006EAF;fontColor=#ffffff;" vertex="1" parent="1">
          <mxGeometry x="180.5" y="380" width="20" height="20" as="geometry" />
        </mxCell>
        <mxCell id="INsz8xT2XLBDGT-k4eeq-22" value="LINE OUT" style="ellipse;html=1;aspect=fixed;fillColor=light-dark(#E51400,#00CC00);strokeColor=#B20000;fontColor=#ffffff;" vertex="1" parent="1">
          <mxGeometry x="180.5" y="410" width="20" height="20" as="geometry" />
        </mxCell>
        <mxCell id="INsz8xT2XLBDGT-k4eeq-23" value="MIC" style="ellipse;whiteSpace=wrap;html=1;aspect=fixed;fillColor=light-dark(#1BA1E2,#FF0000);strokeColor=#006EAF;fontColor=#ffffff;" vertex="1" parent="1">
          <mxGeometry x="180" y="440" width="20" height="20" as="geometry" />
        </mxCell>
        <mxCell id="INsz8xT2XLBDGT-k4eeq-26" value="8" style="rounded=1;whiteSpace=wrap;html=1;fontSize=20;" vertex="1" parent="1">
          <mxGeometry x="52.5" y="500" width="70" height="30" as="geometry" />
        </mxCell>
        <mxCell id="INsz8xT2XLBDGT-k4eeq-28" value="9" style="rounded=1;whiteSpace=wrap;html=1;fontSize=20;" vertex="1" parent="1">
          <mxGeometry x="130.5" y="500" width="70" height="30" as="geometry" />
        </mxCell>
        <mxCell id="INsz8xT2XLBDGT-k4eeq-29" value="10" style="rounded=1;whiteSpace=wrap;html=1;fontSize=20;" vertex="1" parent="1">
          <mxGeometry x="210" y="500" width="70" height="30" as="geometry" />
        </mxCell>
        <mxCell id="INsz8xT2XLBDGT-k4eeq-30" value="11" style="rounded=1;whiteSpace=wrap;html=1;fontSize=20;" vertex="1" parent="1">
          <mxGeometry x="290" y="500" width="70" height="30" as="geometry" />
        </mxCell>
        <mxCell id="INsz8xT2XLBDGT-k4eeq-31" value="&lt;h2&gt;PC Side&lt;/h2&gt;" style="rounded=1;whiteSpace=wrap;html=1;fillColor=#647687;fontColor=#ffffff;strokeColor=#314354;" vertex="1" parent="1">
          <mxGeometry x="440" y="290" width="120" height="30" as="geometry" />
        </mxCell>
        <mxCell id="INsz8xT2XLBDGT-k4eeq-32" value="&lt;h1&gt;&lt;br&gt;&lt;/h1&gt;" style="rounded=0;whiteSpace=wrap;html=1;fillColor=#647687;strokeColor=#314354;fontColor=#ffffff;align=center;" vertex="1" parent="1">
          <mxGeometry x="450" y="350" width="100" height="260" as="geometry" />
        </mxCell>
        <mxCell id="INsz8xT2XLBDGT-k4eeq-33" value="LINE OUT" style="ellipse;html=1;aspect=fixed;fillColor=light-dark(#E51400,#00CC00);strokeColor=#B20000;fontColor=#ffffff;" vertex="1" parent="1">
          <mxGeometry x="490" y="367.5" width="20" height="20" as="geometry" />
        </mxCell>
        <mxCell id="INsz8xT2XLBDGT-k4eeq-34" value="MIC" style="ellipse;whiteSpace=wrap;html=1;aspect=fixed;fillColor=light-dark(#1BA1E2,#FF0000);strokeColor=#006EAF;fontColor=#ffffff;" vertex="1" parent="1">
          <mxGeometry x="490" y="403.75" width="20" height="20" as="geometry" />
        </mxCell>
        <mxCell id="INsz8xT2XLBDGT-k4eeq-35" value="&lt;font style=&quot;font-size: 20px;&quot;&gt;12&lt;/font&gt;" style="rounded=1;whiteSpace=wrap;html=1;" vertex="1" parent="1">
          <mxGeometry x="490" y="440" width="20" height="60" as="geometry" />
        </mxCell>
        <mxCell id="INsz8xT2XLBDGT-k4eeq-36" value="&lt;font style=&quot;font-size: 20px;&quot;&gt;13&lt;/font&gt;" style="rounded=1;whiteSpace=wrap;html=1;" vertex="1" parent="1">
          <mxGeometry x="490" y="520" width="20" height="60" as="geometry" />
        </mxCell>
        <mxCell id="INsz8xT2XLBDGT-k4eeq-38" value="&lt;ol&gt;&lt;li&gt;&lt;span style=&quot;background-color: transparent;&quot;&gt;&lt;font&gt;Extended Mic&lt;/font&gt;&lt;/span&gt;&lt;/li&gt;&lt;li&gt;&lt;span style=&quot;background-color: transparent;&quot;&gt;&lt;font&gt;Printer&lt;/font&gt;&lt;/span&gt;&lt;/li&gt;&lt;li&gt;&lt;span style=&quot;background-color: transparent;&quot;&gt;&lt;font&gt;Foot pedal&lt;/font&gt;&lt;/span&gt;&lt;/li&gt;&lt;li&gt;&lt;font&gt;&lt;br&gt;&lt;/font&gt;&lt;/li&gt;&lt;li&gt;&lt;font&gt;&lt;br&gt;&lt;/font&gt;&lt;/li&gt;&lt;li&gt;&lt;span style=&quot;background-color: transparent;&quot;&gt;&lt;font&gt;KVM Switch&lt;/font&gt;&lt;/span&gt;&lt;/li&gt;&lt;li&gt;&lt;span style=&quot;background-color: transparent;&quot;&gt;&lt;font&gt;Extra Monitor USB Ports&lt;/font&gt;&lt;/span&gt;&lt;/li&gt;&lt;li&gt;&lt;span style=&quot;background-color: transparent;&quot;&gt;&lt;font&gt;Asus HDMI&amp;nbsp;&lt;/font&gt;&lt;/span&gt;(DISPLAY 3\Monitor 0)&lt;/li&gt;&lt;li&gt;&lt;span style=&quot;background-color: transparent;&quot;&gt;&lt;font&gt;DELL DisplayPort&amp;nbsp;&lt;/font&gt;&lt;/span&gt;(DISPLAY 1\Monitor 0)&lt;/li&gt;&lt;li&gt;&lt;span style=&quot;background-color: transparent;&quot;&gt;&lt;font&gt;HP DisplayPort&amp;nbsp;&lt;/font&gt;&lt;/span&gt;(DISPLAY 2\Monitor 0)&lt;/li&gt;&lt;li&gt;&lt;font&gt;&lt;br&gt;&lt;/font&gt;&lt;/li&gt;&lt;li&gt;&lt;span style=&quot;background-color: transparent;&quot;&gt;&lt;font&gt;Nexigo WebCam&lt;/font&gt;&lt;/span&gt;&lt;/li&gt;&lt;/ol&gt;" style="text;html=1;align=left;verticalAlign=middle;resizable=0;points=[];autosize=1;strokeColor=#B09500;fillColor=light-dark(#E3C800,#644A7C);fontColor=light-dark(#000000,#000000);fontSize=15;" vertex="1" parent="1">
          <mxGeometry x="400" y="17.5" width="340" height="260" as="geometry" />
        </mxCell>
        <mxCell id="INsz8xT2XLBDGT-k4eeq-39" value="&lt;h2&gt;BeeLink Back&lt;/h2&gt;" style="rounded=1;whiteSpace=wrap;html=1;fillColor=#647687;fontColor=#ffffff;strokeColor=#314354;" vertex="1" parent="1">
          <mxGeometry x="140" y="650" width="140" height="30" as="geometry" />
        </mxCell>
        <mxCell id="INsz8xT2XLBDGT-k4eeq-40" value="&lt;h1&gt;&lt;br&gt;&lt;/h1&gt;" style="rounded=0;whiteSpace=wrap;html=1;fillColor=#647687;strokeColor=#314354;fontColor=#ffffff;align=center;" vertex="1" parent="1">
          <mxGeometry x="40" y="700" width="340" height="103.75" as="geometry" />
        </mxCell>
        <mxCell id="INsz8xT2XLBDGT-k4eeq-41" value="&lt;font style=&quot;font-size: 20px;&quot;&gt;1&lt;/font&gt;" style="rounded=1;whiteSpace=wrap;html=1;direction=south;" vertex="1" parent="1">
          <mxGeometry x="58" y="720" width="60" height="20" as="geometry" />
        </mxCell>
        <mxCell id="INsz8xT2XLBDGT-k4eeq-43" value="&lt;font style=&quot;font-size: 20px;&quot;&gt;2&lt;/font&gt;" style="rounded=1;whiteSpace=wrap;html=1;direction=south;" vertex="1" parent="1">
          <mxGeometry x="58" y="760" width="60" height="20" as="geometry" />
        </mxCell>
        <mxCell id="INsz8xT2XLBDGT-k4eeq-44" value="" style="rounded=1;whiteSpace=wrap;html=1;arcSize=50;rotation=-90;" vertex="1" parent="1">
          <mxGeometry x="160.5" y="745.63" width="37" height="12.5" as="geometry" />
        </mxCell>
        <mxCell id="INsz8xT2XLBDGT-k4eeq-45" value="ETH" style="rounded=0;whiteSpace=wrap;html=1;" vertex="1" parent="1">
          <mxGeometry x="137" y="726.88" width="40" height="50" as="geometry" />
        </mxCell>
        <mxCell id="INsz8xT2XLBDGT-k4eeq-46" value="3" style="rounded=1;whiteSpace=wrap;html=1;fontSize=20;" vertex="1" parent="1">
          <mxGeometry x="197.5" y="736.88" width="70" height="30" as="geometry" />
        </mxCell>
        <mxCell id="INsz8xT2XLBDGT-k4eeq-47" value="4" style="rounded=1;whiteSpace=wrap;html=1;fontSize=20;" vertex="1" parent="1">
          <mxGeometry x="277.5" y="736.88" width="70" height="30" as="geometry" />
        </mxCell>
        <mxCell id="INsz8xT2XLBDGT-k4eeq-49" value="&lt;ol&gt;&lt;li&gt;&lt;br&gt;&lt;/li&gt;&lt;li&gt;KVM Switch&lt;/li&gt;&lt;li&gt;HP HDMI&lt;/li&gt;&lt;li&gt;Dell HDMI&lt;/li&gt;&lt;/ol&gt;" style="text;html=1;align=left;verticalAlign=middle;resizable=0;points=[];autosize=1;strokeColor=#B09500;fillColor=light-dark(#E3C800,#644A7C);fontColor=light-dark(#000000,#000000);fontSize=15;" vertex="1" parent="1">
          <mxGeometry x="430" y="691.88" width="140" height="120" as="geometry" />
        </mxCell>
        <mxCell id="INsz8xT2XLBDGT-k4eeq-50" value="&lt;h2&gt;KVM Switch&lt;/h2&gt;" style="rounded=1;whiteSpace=wrap;html=1;fillColor=#647687;fontColor=#ffffff;strokeColor=#314354;" vertex="1" parent="1">
          <mxGeometry x="140" y="860" width="140" height="30" as="geometry" />
        </mxCell>
        <mxCell id="INsz8xT2XLBDGT-k4eeq-51" value="&lt;h1&gt;&lt;br&gt;&lt;/h1&gt;" style="rounded=0;whiteSpace=wrap;html=1;fillColor=#647687;strokeColor=#314354;fontColor=#ffffff;align=center;" vertex="1" parent="1">
          <mxGeometry x="40" y="910" width="340" height="180" as="geometry" />
        </mxCell>
        <mxCell id="INsz8xT2XLBDGT-k4eeq-52" value="&lt;font style=&quot;font-size: 20px;&quot;&gt;7&lt;/font&gt;" style="rounded=1;whiteSpace=wrap;html=1;direction=south;" vertex="1" parent="1">
          <mxGeometry x="257.5" y="1078" width="60" height="20" as="geometry" />
        </mxCell>
        <mxCell id="INsz8xT2XLBDGT-k4eeq-53" value="&lt;font style=&quot;font-size: 20px;&quot;&gt;8&lt;/font&gt;" style="rounded=1;whiteSpace=wrap;html=1;direction=south;" vertex="1" parent="1">
          <mxGeometry x="160.5" y="1078" width="60" height="20" as="geometry" />
        </mxCell>
        <mxCell id="INsz8xT2XLBDGT-k4eeq-56" value="1" style="rounded=1;whiteSpace=wrap;html=1;fontSize=20;" vertex="1" parent="1">
          <mxGeometry x="53" y="905" width="70" height="30" as="geometry" />
        </mxCell>
        <mxCell id="INsz8xT2XLBDGT-k4eeq-58" value="UGREEN" style="text;html=1;align=center;verticalAlign=middle;resizable=0;points=[];autosize=1;strokeColor=none;fillColor=none;fontSize=24;" vertex="1" parent="1">
          <mxGeometry x="67.5" y="976.88" width="130" height="40" as="geometry" />
        </mxCell>
        <mxCell id="INsz8xT2XLBDGT-k4eeq-60" value="2" style="rounded=1;whiteSpace=wrap;html=1;fontSize=20;" vertex="1" parent="1">
          <mxGeometry x="140" y="905" width="30" height="30" as="geometry" />
        </mxCell>
        <mxCell id="INsz8xT2XLBDGT-k4eeq-61" value="3" style="rounded=1;whiteSpace=wrap;html=1;fontSize=20;" vertex="1" parent="1">
          <mxGeometry x="200.5" y="905" width="70" height="30" as="geometry" />
        </mxCell>
        <mxCell id="INsz8xT2XLBDGT-k4eeq-62" value="4" style="rounded=1;whiteSpace=wrap;html=1;fontSize=20;" vertex="1" parent="1">
          <mxGeometry x="287.5" y="905" width="30" height="30" as="geometry" />
        </mxCell>
        <mxCell id="INsz8xT2XLBDGT-k4eeq-63" value="&lt;font style=&quot;font-size: 20px;&quot;&gt;5&lt;/font&gt;" style="rounded=1;whiteSpace=wrap;html=1;" vertex="1" parent="1">
          <mxGeometry x="370" y="926.88" width="20" height="60" as="geometry" />
        </mxCell>
        <mxCell id="INsz8xT2XLBDGT-k4eeq-64" value="&lt;font style=&quot;font-size: 20px;&quot;&gt;6&lt;/font&gt;" style="rounded=1;whiteSpace=wrap;html=1;" vertex="1" parent="1">
          <mxGeometry x="370" y="1008.13" width="20" height="60" as="geometry" />
        </mxCell>
        <mxCell id="INsz8xT2XLBDGT-k4eeq-66" value="9" style="rounded=1;whiteSpace=wrap;html=1;fontSize=20;" vertex="1" parent="1">
          <mxGeometry x="82.5" y="1070" width="30" height="30" as="geometry" />
        </mxCell>
        <mxCell id="INsz8xT2XLBDGT-k4eeq-67" value="" style="ellipse;whiteSpace=wrap;html=1;aspect=fixed;" vertex="1" parent="1">
          <mxGeometry x="273.5" y="982.88" width="28" height="28" as="geometry" />
        </mxCell>
        <mxCell id="INsz8xT2XLBDGT-k4eeq-68" value="&lt;ol&gt;&lt;li&gt;&lt;br&gt;&lt;/li&gt;&lt;li&gt;&lt;span style=&quot;background-color: transparent;&quot;&gt;USB B Work PC&lt;/span&gt;&lt;/li&gt;&lt;li&gt;&lt;br&gt;&lt;/li&gt;&lt;li&gt;&lt;span style=&quot;background-color: transparent;&quot;&gt;USB B Gaming PC&lt;/span&gt;&lt;/li&gt;&lt;li&gt;&lt;span style=&quot;background-color: transparent;&quot;&gt;Keyboard&lt;/span&gt;&lt;/li&gt;&lt;li&gt;&lt;span style=&quot;background-color: transparent;&quot;&gt;Mouse&lt;/span&gt;&lt;/li&gt;&lt;li&gt;&lt;br&gt;&lt;/li&gt;&lt;li&gt;Portable Backup Storage&lt;/li&gt;&lt;li&gt;Switcher&lt;/li&gt;&lt;/ol&gt;" style="text;html=1;align=left;verticalAlign=middle;resizable=0;points=[];autosize=1;strokeColor=#B09500;fillColor=light-dark(#E3C800,#644A7C);fontColor=light-dark(#000000,#000000);fontSize=15;" vertex="1" parent="1">
          <mxGeometry x="425" y="880" width="230" height="210" as="geometry" />
        </mxCell>
        <mxCell id="INsz8xT2XLBDGT-k4eeq-69" value="&lt;h2&gt;Linksys&lt;/h2&gt;" style="rounded=1;whiteSpace=wrap;html=1;fillColor=#647687;fontColor=#ffffff;strokeColor=#314354;" vertex="1" parent="1">
          <mxGeometry x="140" y="1140" width="140" height="30" as="geometry" />
        </mxCell>
        <mxCell id="INsz8xT2XLBDGT-k4eeq-70" value="&lt;h1&gt;Linksys&lt;/h1&gt;" style="rounded=0;whiteSpace=wrap;html=1;fillColor=#647687;strokeColor=#314354;fontColor=#ffffff;align=center;" vertex="1" parent="1">
          <mxGeometry x="40" y="1190" width="340" height="180" as="geometry" />
        </mxCell>
        <mxCell id="INsz8xT2XLBDGT-k4eeq-82" value="&lt;ol&gt;&lt;li&gt;ETH to USB A extender&lt;/li&gt;&lt;li&gt;Work&lt;/li&gt;&lt;li&gt;&lt;br&gt;&lt;/li&gt;&lt;li&gt;Gaming PC&lt;/li&gt;&lt;li&gt;Input&lt;/li&gt;&lt;/ol&gt;" style="text;html=1;align=left;verticalAlign=middle;resizable=0;points=[];autosize=1;strokeColor=#B09500;fillColor=light-dark(#E3C800,#644A7C);fontColor=light-dark(#000000,#000000);fontSize=15;" vertex="1" parent="1">
          <mxGeometry x="425" y="1200" width="220" height="130" as="geometry" />
        </mxCell>
        <mxCell id="INsz8xT2XLBDGT-k4eeq-83" value="" style="rounded=1;whiteSpace=wrap;html=1;arcSize=50;rotation=-90;direction=south;" vertex="1" parent="1">
          <mxGeometry x="71.75" y="1362" width="12.5" height="37" as="geometry" />
        </mxCell>
        <mxCell id="INsz8xT2XLBDGT-k4eeq-84" value="1" style="rounded=0;whiteSpace=wrap;html=1;direction=south;fontSize=20;" vertex="1" parent="1">
          <mxGeometry x="53" y="1340" width="50" height="40" as="geometry" />
        </mxCell>
        <mxCell id="INsz8xT2XLBDGT-k4eeq-85" value="" style="rounded=1;whiteSpace=wrap;html=1;arcSize=50;rotation=-90;direction=south;" vertex="1" parent="1">
          <mxGeometry x="141.25" y="1362" width="12.5" height="37" as="geometry" />
        </mxCell>
        <mxCell id="INsz8xT2XLBDGT-k4eeq-86" value="2" style="rounded=0;whiteSpace=wrap;html=1;direction=south;fontSize=20;" vertex="1" parent="1">
          <mxGeometry x="122.5" y="1340" width="50" height="40" as="geometry" />
        </mxCell>
        <mxCell id="INsz8xT2XLBDGT-k4eeq-87" value="" style="rounded=1;whiteSpace=wrap;html=1;arcSize=50;rotation=-90;direction=south;" vertex="1" parent="1">
          <mxGeometry x="209.75" y="1362" width="12.5" height="37" as="geometry" />
        </mxCell>
        <mxCell id="INsz8xT2XLBDGT-k4eeq-88" value="3" style="rounded=0;whiteSpace=wrap;html=1;direction=south;fontSize=20;" vertex="1" parent="1">
          <mxGeometry x="191" y="1340" width="50" height="40" as="geometry" />
        </mxCell>
        <mxCell id="INsz8xT2XLBDGT-k4eeq-89" value="" style="rounded=1;whiteSpace=wrap;html=1;arcSize=50;rotation=-90;direction=south;" vertex="1" parent="1">
          <mxGeometry x="276.75" y="1362" width="12.5" height="37" as="geometry" />
        </mxCell>
        <mxCell id="INsz8xT2XLBDGT-k4eeq-90" value="4" style="rounded=0;whiteSpace=wrap;html=1;direction=south;fontSize=20;" vertex="1" parent="1">
          <mxGeometry x="258" y="1340" width="50" height="40" as="geometry" />
        </mxCell>
        <mxCell id="INsz8xT2XLBDGT-k4eeq-91" value="" style="rounded=1;whiteSpace=wrap;html=1;arcSize=50;rotation=-90;direction=south;" vertex="1" parent="1">
          <mxGeometry x="339.25" y="1362" width="12.5" height="37" as="geometry" />
        </mxCell>
        <mxCell id="INsz8xT2XLBDGT-k4eeq-92" value="5" style="rounded=0;whiteSpace=wrap;html=1;direction=south;fontSize=20;" vertex="1" parent="1">
          <mxGeometry x="320.5" y="1340" width="50" height="40" as="geometry" />
        </mxCell>
      </root>
    </mxGraphModel>
  </diagram>
</mxfile>
